<svg xmlns="http://www.w3.org/2000/svg" viewBox="0 0 1024 1024"><path fill="#000" d="M928 320L928 320L736 320Q723 320 713.5 329Q704 338 704 351.5Q704 365 713.5 374.5Q723 384 736 384L736 384L851 384L723 512Q685 481 635 464L635 464Q640 437 640 416L640 416Q640 366 623.5 320.5Q607 275 576 237L576 237L704 109L704 224Q704 237 713.5 246.5Q723 256 736.5 256Q750 256 759 246.5Q768 237 768 224L768 224L768 32Q768 18 759 9Q750 0 736 0L736 0L544 0Q531 0 521.5 9Q512 18 512 31.5Q512 45 521.5 54.5Q531 64 544 64L544 64L659 64L531 192Q493 161 447.5 144.5Q402 128 352 128L352 128Q274 128 207 167L207 167Q142 206 103 271L103 271Q64 338 64 416L64 416Q64 478 90 534L90 534Q115 588 159.5 628Q204 668 261 688L261 688Q256 713 256 736L256 736Q256 814 295 881L295 881Q334 946 399 985L399 985Q466 1024 544 1024Q622 1024 689 985L689 985Q754 946 793 881L793 881Q832 814 832 736L832 736Q832 686 815.5 640.5Q799 595 768 557L768 557L896 429L896 544Q896 557 905.5 566.5Q915 576 928.5 576Q942 576 951 566.5Q960 557 960 544L960 544L960 352Q960 338 951 329Q942 320 928 320ZM128 416L128 416Q128 355 158 303.5Q188 252 239.5 222Q291 192 352 192Q413 192 464.5 222Q516 252 546 303.5Q576 355 576 416L576 416Q576 424 574 439L574 439L573 451L544 448Q455 448 382 498L382 498Q311 547 278 626L278 626Q212 602 170 545Q128 488 128 416ZM544 512L553 513Q525 570 471.5 605Q418 640 352 640L352 640L343 639Q371 582 424.5 547Q478 512 544 512L544 512ZM544 960L544 960Q483 960 431.5 929.5Q380 899 350 848Q320 797 320 736L320 736Q320 728 322 711L322 711L323 701L352 704Q441 704 513 654.5Q585 605 618 525L618 525Q684 549 726 606.5Q768 664 768 736L768 736Q768 797 738 848Q708 899 656.5 929.5Q605 960 544 960Z"/></svg>
